HIERARCHY
ROOT pelvis
{
  OFFSET 0 100 0
  CHANNELS 6 Xposition Yposition Zposition Zrotation Xrotation Yrotation
  JOINT pelvis_right_femur
  {
    OFFSET -10.78128 -3.44521 -0.5502486
    CHANNELS 3 Zrotation Xrotation Yrotation
    JOINT right_femur_tibia
    {
      OFFSET -0.8047443 -44.0398 -0.1307829
      CHANNELS 3 Zrotation Xrotation Yrotation
      JOINT right_tibia_foot
      {
        OFFSET 3.006224 -47.83518 -5
        CHANNELS 3 Zrotation Xrotation Yrotation
        End Site
        {
          OFFSET 0 -5 15
        }
      }
    }
  }
  JOINT pelvis_left_femur
  {
    OFFSET 10.78128 -3.44521 -0.5502486
    CHANNELS 3 Zrotation Xrotation Yrotation
    JOINT left_femur_tibia
    {
      OFFSET 0.8047443 -44.0398 -0.1307829
      CHANNELS 3 Zrotation Xrotation Yrotation
      JOINT left_tibia_foot
      {
        OFFSET -4.370144 -48.10324 -4.275266
        CHANNELS 3 Zrotation Xrotation Yrotation
        End Site
        {
          OFFSET 0 -5 15
        }
      }
    }
  }
  JOINT pelvis_spine1
  {
    OFFSET 0 6.468898 -3.129235
    CHANNELS 3 Zrotation Xrotation Yrotation
    JOINT spine1
    {
      OFFSET 0 23.15396 4.99043
      CHANNELS 3 Zrotation Xrotation Yrotation
      JOINT spine2
      {
        OFFSET 0 20.79997 -5.064912
        CHANNELS 3 Zrotation Xrotation Yrotation
        JOINT neck
        {
          OFFSET 0 14.38658 9.616178
          CHANNELS 3 Zrotation Xrotation Yrotation
          End Site
          {
            OFFSET 0 20 0
          }
        }
      }
      JOINT right_manubrium
      {
        OFFSET -5.722621 16.35077 3.967754
        CHANNELS 3 Zrotation Xrotation Yrotation
        JOINT right_clavicle
        {
          OFFSET -13.16364 1.694482 -4.693211
          CHANNELS 3 Zrotation Xrotation Yrotation
          JOINT right_humerus
          {
            OFFSET -28.5034 -0.3100689 -2.792744
            CHANNELS 3 Zrotation Xrotation Yrotation
            JOINT right_radius
            {
              OFFSET -25.15693 0.02248979 -1.271978
              CHANNELS 3 Zrotation Xrotation Yrotation
              End Site
              {
                OFFSET -15 0 0
              }
            }
          }
        }
      }
      JOINT left_manubrium
      {
        OFFSET 5.722621 16.35077 3.967754
        CHANNELS 3 Zrotation Xrotation Yrotation
        JOINT left_clavicle
        {
          OFFSET 13.16364 1.694482 -4.693211
          CHANNELS 3 Zrotation Xrotation Yrotation
          JOINT left_humerus
          {
            OFFSET 29.39168 -1.063119 -2.237045
            CHANNELS 3 Zrotation Xrotation Yrotation
            JOINT left_radius
            {
              OFFSET 24.59957 -0.9528479 0.9047498
              CHANNELS 3 Zrotation Xrotation Yrotation
              End Site
              {
                OFFSET 15 -0 -0
              }
            }
          }
        }
      }
    }
  }
}
MOTION
Frames: 7
Frame Time: 0.0416666666667
0 103.5113 0 1.013926 -0.9250136 -0.05675384 3.353383 -17.04879 8.720229 -0 35.7635 -0 -4.567464 -15.7675 -3.770725 -6.75302 11.86799 -23.18098 -0 5.152164 -0 4.670318 -18.94882 24.593 -2.289857 -3.8177 5.927123 2.594827 9.645059 -7.611693 1.482126 21.7371 5.398925 1.559434 -25.89638 9.093497 4.686578 -21.52969 11.02614 82.71377 32.73307 -14.62993 -0 0 18.74532 -10.42608 7.708182 4.826877 6.988889 -20.47306 1.828175 -94.11749 20.26664 23.75465 0 0 -7.011369 14.65406 18.41582 -4.89232
0.2603627 103.4729 1.589406 -0.3275884 -0.8601023 -0.2497264 4.873722 -20.85862 9.017742 -0 37.5152 -0 -5.969823 -13.40655 -4.421479 -5.544796 11.92126 -22.19586 -0 6.397095 -0 2.143767 -20.68778 23.10239 -2.165711 -3.336311 5.65461 2.757005 9.758627 -7.659243 1.446597 21.58402 5.756182 1.856159 -26.21087 9.275839 4.747566 -20.94298 11.23502 83.60497 33.241 -15.61602 -0 0 17.48581 -9.934281 7.850187 4.755709 6.761058 -20.57051 1.369433 -93.63017 20.28785 22.93716 0 0 -8.78041 14.5653 17.37604 -4.563461
0.5506141 103.2799 3.382618 -0.5598383 0.8590182 -0.3756597 5.926674 -25.19198 9.469813 -0 33.16306 -0 -5.54835 -12.85522 -4.285674 -5.618354 11.73644 -21.65833 -0 5.724754 -0 3.836291 -21.72869 23.33838 -2.11922 -3.0934 5.608137 2.658951 9.875518 -7.593057 1.400216 21.47761 6.000077 2.156578 -25.94976 9.230025 4.963485 -20.51728 11.29232 84.00035 33.77748 -16.16707 -0 0 16.79442 -9.889175 8.204672 4.938526 6.657773 -20.71535 0.9144364 -93.45624 20.96243 22.68175 0 0 -10.35051 13.59995 16.69868 -3.051023
0.8523178 102.8755 5.4676 -0.6509516 2.155602 -0.4045303 6.575367 -28.51447 9.302769 -0 28.78 -0 -5.362902 -11.8326 -3.916943 -5.769509 11.87504 -21.05042 -0 5.339765 -0 5.153062 -22.55196 23.28357 -2.086381 -2.880082 5.61214 2.566508 9.977116 -7.522663 1.329456 21.42666 6.140155 2.334506 -25.68514 9.107123 5.004886 -20.28209 11.37791 84.25092 34.08061 -16.33073 -0 0 16.35788 -10.25881 8.501698 5.318596 6.522803 -20.80668 0.5996374 -93.22499 21.18536 22.52336 0 0 -11.27493 12.90591 16.08668 -2.094004
1.148543 102.2695 7.978169 -0.7797695 3.328645 -0.2751288 7.131284 -31.75187 8.744982 -0 24.10698 -0 -5.420063 -10.139 -3.395614 -5.887522 12.31059 -20.23315 -0 5.442535 -0 6.069747 -23.33121 22.81523 -2.071662 -2.716109 5.655779 2.431187 10.07718 -7.435957 1.260178 21.39466 6.249501 2.506302 -25.32846 8.942527 5.064758 -20.08691 11.43606 84.4027 34.34898 -16.41024 -0 0 16.05323 -10.71803 8.817946 5.724786 6.413426 -20.89015 0.2994009 -93.07084 21.51383 22.47207 0 0 -12.06269 12.09246 15.55975 -0.9910611
1.417317 101.497 11.04325 -0.9844245 4.212474 0.05617488 7.528653 -34.44833 7.822477 -0 19.75756 -0 -5.743879 -7.874085 -2.784625 -5.895006 13.05681 -19.19725 -0 6.370246 -0 6.198533 -23.8338 21.72737 -2.062257 -2.561468 5.703101 2.305345 10.16841 -7.353256 1.190122 21.37448 6.338456 2.65206 -24.99469 8.774298 5.087991 -19.93006 11.49706 84.52378 34.55064 -16.42475 -0 0 15.80612 -11.23596 9.103917 6.145347 6.303934 -20.95283 0.03699034 -92.91074 21.74656 22.42393 0 0 -12.69253 11.37291 15.05063 -0.05043969
1.641328 100.6518 14.78665 -1.315023 4.778095 0.6081143 7.856408 -36.26595 6.763537 -0 16.25553 -0 -6.265285 -5.294213 -2.16438 -5.717752 14.01595 -17.97497 -0 8.506302 -0 5.281456 -23.74692 19.89189 -2.057577 -2.418645 5.747093 2.183709 10.25244 -7.27638 1.124121 21.35734 6.421378 2.793992 -24.67109 8.610035 5.111493 -19.78085 11.55177 84.63166 34.72438 -16.44372 -0 0 15.58642 -11.74128 9.375262 6.542684 6.206333 -21.00453 -0.2134517 -92.76552 21.98695 22.37289 0 0 -13.27084 10.68135 14.56548 0.8504732
